<?xml version="1.0" encoding="UTF-8" standalone="no"?>
        <svg 
    viewBox="17.138671875 -71.8505859375 433.740234375 52.2216796875"
    width="416.6015625"
    height="124.072265625"
   xmlns="http://www.w3.org/2000/svg"
   xmlns:svg="http://www.w3.org/2000/svg">
   <path d="M19.04-26.37L19.04-26.37L20.95-28.71L71.78-28.71L71.34-33.69Q71.19-35.01 71.19-36.04L71.19-36.04Q71.19-38.53 72.29-40.21Q73.39-41.89 78.22-44.24L78.22-44.24L82.91-46.88L66.50-46.58Q60.79-46.44 57.13-46.44L57.13-46.44Q53.47-46.44 51.20-46.66Q48.93-46.88 48.05-48.49L48.05-48.49Q46.58-50.54 46.58-51.86Q46.58-53.17 48.05-55.08L48.05-55.08Q48.93-56.40 51.05-56.91Q53.17-57.42 58.59-57.42L58.59-57.42Q62.55-57.71 65.19-57.86Q67.82-58.01 68.12-58.15L68.12-58.15Q68.41-58.15 68.48-59.99Q68.55-61.82 68.55-62.99L68.55-62.99Q68.55-65.19 68.41-67.97L68.41-67.97L68.41-75.59Q68.41-79.10 68.12-80.13L68.12-80.13L68.12-82.76L64.16-78.81Q60.50-75.29 56.40-72.44Q52.29-69.58 47.90-67.38L47.90-67.38Q45.70-66.36 42.92-64.67Q40.14-62.99 38.09-61.67L38.09-61.67Q33.11-58.15 31.27-57.71Q29.44-57.28 28.71-57.28L28.71-57.28Q26.81-57.28 25.49-58.74L25.49-58.74Q23.73-60.21 23.73-62.11L23.73-62.11Q23.73-63.13 24.68-65.19Q25.63-67.24 31.20-70.02L31.20-70.02Q38.09-73.97 47.46-80.20Q56.84-86.43 57.86-87.74L57.86-87.74Q57.86-88.04 57.06-88.11Q56.25-88.18 55.81-88.18L55.81-88.18Q54.93-88.18 53.91-88.04L53.91-88.04Q43.07-87.01 35.96-86.57Q28.86-86.13 26.22-86.13L26.22-86.13Q22.12-86.13 20.95-86.72L20.95-86.72Q19.04-87.45 18.60-89.06Q18.16-90.67 18.16-91.55L18.16-91.55Q18.16-92.87 18.90-94.04L18.90-94.04Q19.34-94.92 20.65-95.65Q21.97-96.39 23.88-96.68L23.88-96.68Q27.54-97.71 38.23-98.29Q48.93-98.88 59.77-98.88L59.77-98.88L67.09-98.88L67.68-104.59Q67.68-106.93 68.19-108.91Q68.70-110.89 69.14-111.77L69.14-111.77Q70.61-113.23 72.80-113.23L72.80-113.23Q73.10-113.23 74.41-113.16Q75.73-113.09 77.05-110.89L77.05-110.89Q77.93-110.16 78.44-108.33Q78.96-106.49 79.25-104.30L79.25-104.30L79.98-99.90L104.74-99.90Q115.14-99.90 122.46-99.61Q129.79-99.32 130.66-99.02L130.66-99.02Q132.28-98.00 132.35-96.90Q132.42-95.80 132.42-95.65L132.42-95.65Q132.42-93.60 131.40-91.70L131.40-91.70Q130.66-90.09 128.91-89.72Q127.15-89.36 121.73-89.36L121.73-89.36Q117.92-89.36 112.13-89.21Q106.35-89.06 101.37-88.77L101.37-88.77Q92.87-88.33 91.63-88.11Q90.38-87.89 90.38-87.60L90.38-87.60Q90.38-87.30 91.41-86.72L91.41-86.72Q93.46-84.81 99.39-81.96Q105.32-79.10 115.28-74.56L115.28-74.56Q123.78-70.90 126.27-68.85Q128.76-66.80 128.76-64.89L128.76-64.89Q128.76-64.16 128.47-63.43L128.47-63.43Q127.73-60.79 124.37-60.79L124.37-60.79Q123.49-60.79 120.34-61.38Q117.19-61.96 102.98-67.97L102.98-67.97Q92.43-72.66 86.94-74.56Q81.45-76.46 80.42-76.46L80.42-76.46Q80.27-76.46 80.27-76.46L80.27-76.46Q79.98-76.17 79.83-73.90Q79.69-71.63 79.69-68.26L79.69-68.26Q79.69-64.60 79.32-62.18Q78.96-59.77 78.37-59.33L78.37-59.33Q78.22-59.18 78.22-59.03L78.22-59.03Q78.22-58.59 79.61-58.30Q81.01-58.01 86.28-58.01L86.28-58.01Q94.19-58.01 98.07-56.91Q101.95-55.81 102.10-53.76L102.10-53.76Q102.25-52.88 102.25-52.29L102.25-52.29Q102.25-50.68 101.15-49.29Q100.05-47.90 97.71-47.46L97.71-47.46Q94.78-46.58 90.31-42.63Q85.84-38.67 84.81-36.04L84.81-36.04Q84.67-35.60 84.67-35.01L84.67-35.01Q84.67-34.57 84.81-33.62Q84.96-32.67 85.55-31.64L85.55-31.64L86.57-28.71L107.96-28.42Q123.05-28.42 126.71-28.05Q130.37-27.69 130.96-26.07L130.96-26.07Q132.71-23.88 132.71-22.56Q132.71-21.24 130.96-19.48L130.96-19.48Q130.08-17.87 126.42-17.58Q122.75-17.29 108.69-17.29L108.69-17.29L88.48-17.29L87.89-10.55Q87.16-1.76 84.74 3.52Q82.32 8.79 78.66 9.81L78.66 9.81Q78.52 9.81 78.22 9.81L78.22 9.81Q75.59 9.81 71.04 6.67Q66.50 3.52 64.45 0.29L64.45 0.29Q63.72-1.61 63.72-3.22L63.72-3.22Q63.72-5.27 65.04-6.37Q66.36-7.47 67.82-7.47L67.82-7.47Q69.73-7.47 72.07-6.01L72.07-6.01L75-3.96L75.73-6.01Q76.03-7.03 76.46-8.86Q76.90-10.69 77.05-12.89L77.05-12.89Q77.20-14.50 77.20-15.53L77.20-15.53Q77.20-16.26 77.05-16.77Q76.90-17.29 75.59-17.29L75.59-17.29L47.61-17.29L21.68-17.14L19.34-19.48Q17.29-21.53 17.21-22.19Q17.14-22.85 17.14-22.85L17.14-22.85Q17.14-24.02 19.04-26.37ZM225.59-40.28L225.29-62.55L227.34-64.01Q228.52-65.19 231.59-65.33Q234.67-65.48 238.33-65.48L238.33-65.48Q243.02-65.48 250.93-65.33L250.93-65.33Q259.86-65.19 265.94-64.89Q272.02-64.60 272.46-64.31L272.46-64.31Q273.05-62.40 273.05-53.76L273.05-53.76Q273.05-49.51 272.75-37.65Q272.46-25.78 271.44-17.43L271.44-17.43Q271.14-16.11 270.63-15.16Q270.12-14.21 269.53-13.92L269.53-13.92Q268.51-13.77 262.57-13.48Q256.64-13.18 248.29-13.18L248.29-13.18L228.22-13.18L227.20-15.82Q226.90-17.14 226.39-24.02Q225.88-30.91 225.59-40.28L225.59-40.28ZM161.72-15.23L161.72-15.23Q162.60-16.41 165.89-17.72Q169.19-19.04 175.49-20.36L175.49-20.36L178.13-21.09L177.54-48.78L171.53-49.37Q163.18-49.95 163.18-54.35L163.18-54.35Q163.18-54.93 163.33-55.66L163.33-55.66Q164.65-60.64 172.85-60.64L172.85-60.64L178.13-60.64L178.13-83.64L171.83-83.64Q170.65-83.64 169.48-83.64L169.48-83.64Q165.23-83.64 163.48-84.67Q161.72-85.69 161.72-89.06L161.72-89.06Q161.72-92.29 162.89-93.60Q164.06-94.92 166.99-95.21L166.99-95.21Q168.60-95.21 174.24-95.43Q179.88-95.65 187.65-95.65L187.65-95.65Q193.07-95.80 196.73-95.80L196.73-95.80Q201.42-95.80 203.83-95.51Q206.25-95.21 207.13-93.60L207.13-93.60Q208.74-92.29 208.81-91.77Q208.89-91.26 208.89-91.11L208.89-91.11Q208.89-90.23 208.45-88.92L208.45-88.92Q207.57-86.43 204.71-85.40Q201.86-84.38 196.00-84.38L196.00-84.38L189.40-84.38L189.40-61.67L196.29-61.67Q199.51-61.67 201.71-61.45Q203.91-61.23 204.79-60.64L204.79-60.64Q206.54-59.03 206.69-57.79Q206.84-56.54 206.84-56.25L206.84-56.25Q206.84-54.49 205.52-53.03L205.52-53.03Q204.79-51.71 202.88-51.20Q200.98-50.68 196.29-50.39L196.29-50.39L189.11-49.80L189.11-36.62Q189.11-31.05 189.26-27.25Q189.40-23.44 189.70-23.14L189.70-23.14L191.60-23.29Q193.36-23.44 196.00-23.73L196.00-23.73Q198.63-24.32 200.39-24.32L200.39-24.32Q200.98-24.32 202.08-24.17Q203.17-24.02 204.20-23.14L204.20-23.14Q206.40-21.53 206.40-19.04L206.40-19.04Q206.40-18.90 206.32-17.50Q206.25-16.11 203.61-14.50L203.61-14.50Q202.29-13.92 196.51-12.60Q190.72-11.28 182.81-9.81L182.81-9.81Q170.21-7.32 168.31-7.18Q166.41-7.03 165.97-7.03L165.97-7.03Q163.48-7.03 162.74-8.20L162.74-8.20Q161.28-9.52 161.13-10.62Q160.99-11.72 160.99-12.16L160.99-12.16Q160.99-13.62 161.72-15.23ZM212.55-99.61L212.55-99.61Q214.89-101.66 225-101.66L225-101.66Q227.49-101.66 230.27-101.51L230.27-101.51L246.39-101.51L245.80-103.56Q244.78-106.49 244.78-108.62Q244.78-110.74 245.65-112.35L245.65-112.35Q245.80-113.09 247.05-113.53Q248.29-113.96 250.05-113.96L250.05-113.96Q253.27-113.96 254.59-112.21Q255.91-110.45 256.64-105.47L256.64-105.47L257.23-100.93L271.73-100.78Q281.25-100.20 284.25-99.83Q287.26-99.46 287.84-98.29L287.84-98.29Q288.87-96.68 288.87-93.90L288.87-93.90Q288.87-92.87 288.57-90.09Q288.28-87.30 286.52-81.15L286.52-81.15Q285.21-76.76 283.67-75.66Q282.13-74.56 280.81-74.56L280.81-74.56Q279.64-74.56 278.32-75.15L278.32-75.15Q275.98-76.17 275.61-77.56Q275.24-78.96 275.24-79.83L275.24-79.83Q275.24-81.59 275.98-84.08L275.98-84.08Q276.42-85.99 276.49-86.87Q276.56-87.74 276.56-88.04L276.56-88.04Q276.56-88.77 276.42-88.92L276.42-88.92Q275.68-89.06 268.14-89.50Q260.60-89.94 249.61-89.94L249.61-89.94L223.39-90.38L223.39-85.40Q223.54-82.32 223.54-80.57L223.54-80.57Q223.54-79.10 223.39-77.78Q223.24-76.46 222.07-75.73L222.07-75.73Q220.61-74.12 218.70-74.12L218.70-74.12Q218.41-74.12 217.09-74.27Q215.77-74.41 214.45-76.17L214.45-76.17Q214.01-77.20 213.21-80.13Q212.40-83.06 211.82-86.28L211.82-86.28Q210.79-90.97 210.79-94.04L210.79-94.04Q210.79-98.14 212.55-99.61ZM208.59 0.73L208.59 0.73Q208.74-0.59 210.79-2.34L210.79-2.34L212.84-4.69L248.73-4.69Q265.87-4.69 275.54-4.47Q285.21-4.25 286.23-3.66L286.23-3.66Q287.99-2.64 288.06-1.03Q288.13 0.59 288.13 0.73L288.13 0.73Q288.13 3.37 286.67 4.69L286.67 4.69Q286.23 5.57 279.57 5.71Q272.90 5.86 263.23 5.86L263.23 5.86Q256.93 5.86 248.44 5.86L248.44 5.86Q222.66 5.86 216.43 5.42Q210.21 4.98 210.06 3.66L210.06 3.66Q208.59 2.05 208.59 0.88L208.59 0.88Q208.59 0.88 208.59 0.73ZM226.46-76.76L226.46-76.76Q226.61-78.08 227.20-79.39L227.20-79.39L228.22-81.74L248.73-81.74Q262.50-81.74 266.31-81.37Q270.12-81.01 270.85-79.69L270.85-79.69Q272.75-78.08 272.75-76.32Q272.75-74.56 270.70-72.80L270.70-72.80Q269.53-71.19 266.16-70.83Q262.79-70.46 250.63-69.87L250.63-69.87Q244.63-69.58 240.38-69.58L240.38-69.58Q234.52-69.58 231.08-70.24Q227.64-70.90 226.90-74.41L226.90-74.41Q226.46-75.29 226.46-76.17L226.46-76.17Q226.46-76.46 226.46-76.76ZM237.45-25.78L237.45-25.78Q237.45-24.32 238.92-24.10Q240.38-23.88 243.02-23.88L243.02-23.88Q245.51-23.88 249.61-24.02L249.61-24.02L261.18-24.32L261.62-35.01L249.76-35.01Q244.78-35.01 241.33-34.94Q237.89-34.86 237.45-34.57L237.45-34.57Q236.87-33.69 236.87-30.98Q236.87-28.27 237.45-25.78ZM237.16-49.51L237.16-49.51Q237.16-47.75 237.45-46.58Q237.74-45.41 237.89-45.41L237.89-45.41Q238.48-45.41 242.07-45.48Q245.65-45.56 250.63-45.56L250.63-45.56L262.50-45.56L262.50-55.37L252.25-54.79Q240.53-54.64 238.70-54.05Q236.87-53.47 236.87-51.56L236.87-51.56Q236.87-50.68 237.16-49.51ZM318.31-92.43L318.31-92.43Q319.48-93.31 324.83-93.82Q330.18-94.34 344.53-94.63L344.53-94.63L368.26-95.07L368.26-102.98Q368.12-104.88 368.12-106.35L368.12-106.35Q368.12-109.72 368.70-111.40Q369.29-113.09 371.63-113.82L371.63-113.82Q372.66-114.26 373.54-114.26L373.54-114.26Q375.59-114.26 377.27-111.69Q378.96-109.13 378.96-101.95L378.96-101.95L379.25-95.07L394.78-94.63Q417.19-93.46 424.22-92.80Q431.25-92.14 431.98-90.82L431.98-90.82Q433.59-89.36 433.67-88.55Q433.74-87.74 433.74-87.74L433.74-87.74Q433.74-86.28 431.98-84.23L431.98-84.23Q431.25-82.91 429.57-82.62Q427.88-82.32 425.24-82.32L425.24-82.32Q423.05-82.32 419.82-82.47L419.82-82.47L409.13-82.76L406.64-77.20Q401.66-65.77 396.90-56.69Q392.14-47.61 388.48-42.33L388.48-42.33Q385.84-38.09 384.81-36.11Q383.79-34.13 383.79-33.11L383.79-33.11Q383.79-32.81 383.79-32.67L383.79-32.67Q385.11-29.74 391.04-24.46Q396.97-19.19 402.25-16.55L402.25-16.55Q404.59-15.53 409.35-13.26Q414.11-10.99 418.51-8.64L418.51-8.64Q426.27-4.98 428.10-3.52Q429.93-2.05 429.93-0.15L429.93-0.15Q429.93 0.44 429.93 0.88L429.93 0.88Q429.93 2.78 428.98 4.17Q428.03 5.57 426.27 5.86L426.27 5.86Q425.39 5.57 422.53 4.83Q419.68 4.10 415.87 2.93L415.87 2.93Q406.49-0.15 396.97-5.71Q387.45-11.28 380.86-17.87L380.86-17.87Q377.64-20.80 375.44-22.63Q373.24-24.46 372.95-24.76L372.95-24.76Q372.66-24.46 371.12-23.36Q369.58-22.27 367.68-20.80L367.68-20.80Q351.86-8.06 342.11-0.66Q332.37 6.74 330.47 6.74L330.47 6.74Q328.71 6.74 327.25 4.98Q325.78 3.22 325.49 1.17L325.49 1.17Q325.49-1.17 326.81-2.78Q328.13-4.39 331.49-6.45L331.49-6.45Q333.11-7.62 335.89-9.67Q338.67-11.72 341.60-13.92L341.60-13.92Q344.53-16.26 348.85-19.85Q353.17-23.44 357.13-26.22L357.13-26.22Q361.08-29.44 363.72-31.71Q366.36-33.98 366.36-34.42L366.36-34.42Q366.36-35.01 365.41-36.84Q364.45-38.67 363.13-41.31L363.13-41.31Q361.67-43.95 358.08-50.68Q354.49-57.42 350.54-65.33L350.54-65.33L341.60-83.50L331.05-83.50Q324.17-83.50 321.90-83.86Q319.63-84.23 318.31-85.84L318.31-85.84Q316.26-88.04 316.26-89.58Q316.26-91.11 318.31-92.43ZM353.91-83.20L353.91-83.20Q354.20-82.91 355.30-80.57Q356.40-78.22 357.86-75L357.86-75Q359.47-71.63 360.57-69.36Q361.67-67.09 361.67-66.65L361.67-66.65Q362.40-64.75 368.04-55.52Q373.68-46.29 375.59-44.53L375.59-44.53Q375.88-44.24 376.32-44.24L376.32-44.24Q376.61-44.24 377.12-44.46Q377.64-44.68 378.52-46.29L378.52-46.29Q381.45-50.83 387.89-63.87Q394.34-76.90 395.65-80.57L395.65-80.57L396.09-83.50L375-83.50Q366.06-83.50 360.13-83.35Q354.20-83.20 353.91-83.20Z"/>
    </svg>
        